<svg xmlns="http://www.w3.org/2000/svg" width="16" height="16" version="1.1"><g fill="#bebebe"><rect width="2" height="12" x="6.162" y="1" rx=".532" ry=".532"/><rect width="4.695" height="2" x="6.162" y="1" rx=".495" ry=".495"/><path stroke="#bebebe" stroke-linejoin="round" stroke-width="1.01" d="m7.6573 12.516a2.9953 2.9953 0 0 1 -5.9905 0 2.9953 2.9953 0 1 1 5.9905 0z"/></g><path fill="#8ae234" d="m9.6734 10.461v4.7956h0.47968c0.08388 0.00048 0.16678-0.01861 0.23978-0.05994l3.3569-1.9182c0.149-0.08243 0.22479-0.25103 0.22479-0.41962s-0.0758-0.33718-0.22479-0.41962l-3.3569-1.9182c-0.073-0.044-0.156-0.063-0.24-0.063h-0.04496z"/></svg>